<?xml version="1.0" standalone="no"?>
<!DOCTYPE svg PUBLIC "-//W3C//DTD SVG 20010904//EN"
 "http://www.w3.org/TR/2001/REC-SVG-20010904/DTD/svg10.dtd">
<svg version="1.0" xmlns="http://www.w3.org/2000/svg"
 width="2047.000000pt" height="2047.000000pt" viewBox="0 0 2047.000000 2047.000000"
 preserveAspectRatio="xMidYMid meet">
<metadata>
Created by potrace 1.14, written by Peter Selinger 2001-2017
</metadata>
<g transform="translate(0.000000,2047.000000) scale(0.100000,-0.100000)"
fill="#000000" stroke="none">
<path d="M50 13251 l0 -7178 57 -12 c575 -111 20259 -3911 20286 -3916 l37 -7
0 9146 0 9146 -10190 0 -10190 0 0 -7179z m9738 3714 c648 -70 1148 -282 1530
-650 337 -323 531 -716 608 -1230 21 -140 30 -522 15 -671 -46 -453 -221 -876
-537 -1297 -184 -245 -483 -568 -856 -923 -318 -303 -404 -406 -484 -579 -77
-166 -111 -354 -121 -667 l-6 -188 -735 0 -734 0 6 173 c25 662 99 948 323
1252 90 123 374 403 628 620 248 212 436 398 558 550 336 419 496 830 497
1270 0 576 -247 963 -709 1109 -144 46 -250 60 -441 60 -256 0 -417 -36 -620
-140 -315 -160 -474 -399 -511 -763 l-12 -121 -711 2 -711 3 -3 110 c-13 454
146 910 441 1261 192 229 413 398 712 545 352 172 709 260 1195 293 114 8 540
-4 678 -19z m3588 -5566 c578 -56 993 -310 1199 -733 97 -199 135 -383 135
-652 0 -262 -38 -432 -144 -649 -122 -248 -262 -421 -662 -820 -183 -183 -272
-278 -298 -322 -70 -118 -97 -234 -112 -475 l-6 -108 -439 0 -439 0 0 108 c0
309 55 546 166 713 58 89 229 262 419 426 364 313 543 573 607 883 29 140 22
371 -15 485 -70 213 -216 351 -437 411 -92 26 -348 26 -440 1 -86 -23 -212
-86 -281 -140 -105 -83 -176 -229 -187 -379 l-5 -78 -433 0 -434 0 0 93 c0
313 120 599 346 823 223 220 543 362 924 409 132 16 393 18 536 4z m-3416
-2369 l0 -690 -750 0 -750 0 0 690 0 690 750 0 750 0 0 -690z m3540 -2440 l0
-420 -450 0 -450 0 0 420 0 420 450 0 450 0 0 -420z"/>
<path d="M2352 4659 c-49 -101 -358 -732 -686 -1402 -328 -670 -596 -1221
-596 -1225 0 -4 135 -36 300 -71 165 -36 300 -67 300 -69 0 -8 -160 -625 -167
-642 -3 -9 -19 20 -38 70 -32 82 -34 85 -68 88 -31 3 -38 -2 -76 -53 l-42 -56
82 -117 c108 -155 97 -145 143 -119 l39 22 102 393 c56 216 104 394 106 396 2
2 565 -118 1251 -267 687 -149 1250 -268 1252 -266 2 2 -13 103 -35 224 -57
323 -57 322 46 830 l86 421 -481 954 c-265 525 -483 956 -485 958 -2 2 -50
-17 -108 -42 l-104 -45 -304 83 c-167 45 -305 80 -307 77 -1 -3 331 -739 738
-1635 408 -896 739 -1631 736 -1633 -3 -4 -2245 465 -2253 471 -3 2 43 165 48
170 3 4 419 -100 924 -229 505 -130 923 -234 928 -232 6 2 -214 124 -489 271
-274 147 -502 271 -506 275 -7 6 -229 2073 -224 2079 2 1 205 -412 451 -919
247 -506 453 -922 457 -925 5 -3 0 16 -11 43 -10 26 -218 552 -461 1168 -243
616 -446 1124 -451 1129 -5 5 -46 -69 -97 -175z m53 -1306 c-19 -488 -36 -903
-38 -921 l-2 -34 -267 -97 c-146 -54 -264 -93 -262 -87 2 6 116 444 254 973
229 884 254 970 297 1058 l48 96 3 -50 c2 -27 -13 -450 -33 -938z m-468 -443
c-126 -487 -231 -886 -232 -888 -2 -3 -388 79 -393 83 -2 2 188 384 423 850
235 465 428 845 430 843 2 -2 -101 -401 -228 -888z"/>
<path d="M52 108 l-2 -58 10193 2 10192 3 -10187 2 -10187 3 -4 53 -3 52 -2
-57z"/>
</g>
</svg>
