<svg width="41" height="41" viewBox="0 0 41 41" fill="none" xmlns="http://www.w3.org/2000/svg">
<path d="M20.5001 5.125C19.7142 5.125 18.9113 5.19333 18.1084 5.36417C13.3934 6.26958 9.63508 10.0792 8.74675 14.7942C7.92675 19.2529 9.56675 23.3529 12.5393 26.0008C13.2738 26.65 13.6668 27.5554 13.6668 28.5121V32.4583C13.6668 34.3375 15.2043 35.875 17.0834 35.875H17.5617C18.1597 36.9 19.2359 37.5833 20.5001 37.5833C21.7642 37.5833 22.8576 36.9 23.4384 35.875H23.9167C25.7959 35.875 27.3334 34.3375 27.3334 32.4583V28.5121C27.3334 27.5725 27.7092 26.65 28.4267 26.0179C30.9038 23.8313 32.4584 20.6367 32.4584 17.0833C32.4584 10.4721 27.1113 5.125 20.5001 5.125ZM23.9167 29.0417H17.0834V27.3333H23.9167V29.0417ZM17.0834 32.4583V30.75H23.9167V32.4583H17.0834ZM26.1547 23.4725C26.0009 23.6092 25.8813 23.78 25.7447 23.9167H15.2384C15.1018 23.7629 14.9822 23.5921 14.8284 23.4554C12.5734 21.4396 11.5655 18.4329 12.1122 15.4263C12.7272 12.1121 15.4605 9.36167 18.7576 8.7125C19.3384 8.59292 19.9193 8.54167 20.5001 8.54167C25.2151 8.54167 29.0417 12.3683 29.0417 17.0833C29.0417 19.5263 27.9997 21.8496 26.1547 23.4725Z" fill="#96A145"/>
<path d="M21.3542 18.7917H19.6459V23.9167H21.3542V18.7917Z" fill="#96A145"/>
<path d="M17.7316 15.1593L16.5237 16.3672L20.1476 19.9911L21.3555 18.7832L17.7316 15.1593Z" fill="#96A145"/>
<path d="M19.6475 18.8005L20.8555 20.0085L24.4794 16.3846L23.2714 15.1766L19.6475 18.8005Z" fill="#96A145"/>
</svg>
