<svg width="38" height="38" viewBox="0 0 38 38" fill="none" xmlns="http://www.w3.org/2000/svg">
<path d="M31.6825 24.3517C29.735 24.3517 27.8508 24.035 26.0933 23.465C25.5392 23.275 24.9217 23.4175 24.4942 23.845L22.0083 26.9642C17.5275 24.8267 13.3317 20.7892 11.0992 16.15L14.1867 13.5217C14.6142 13.0783 14.7408 12.4608 14.5667 11.9067C13.9808 10.1492 13.68 8.265 13.68 6.3175C13.68 5.4625 12.9675 4.75 12.1125 4.75H6.63417C5.77917 4.75 4.75 5.13 4.75 6.3175C4.75 21.0267 16.9892 33.25 31.6825 33.25C32.8067 33.25 33.25 32.2525 33.25 31.3817V25.9192C33.25 25.0642 32.5375 24.3517 31.6825 24.3517Z" fill="#96A145"/>
</svg>
